# xmcd
# 
# Track frame offsets:
#     150
#     37197
#     70055
#     98625
#     129920
#     149952
#     171342
#     191197
#     231942
# 
# Disc length: 3324
# 
# Revision: 0
# Processed by: cddbd v1.5.2PL0 Copyright (c) Steve Scherf et al.
# Submitted via: BonkEnc v1.0.8
# 
DISCID=890cfa09
DTITLE=John Klemmer - Cry - Solo Saxophone
DYEAR=1978
DGENRE=Fusion
TTITLE0=Intimacy
TTITLE1=Cry
TTITLE2=Waterfalls
TTITLE3=Happines
TTITLE4=I Am
TTITLE5=Love
TTITLE6=Infinity
TTITLE7='Round Midnight
TTITLE8=Ecstacy
EXTD=YEAR: 1978
EXTT0=
EXTT1=
EXTT2=
EXTT3=
EXTT4=
EXTT5=
EXTT6=
EXTT7=
EXTT8=
PLAYORDER=
